<?xml version="1.0" encoding="UTF-8" standalone="no"?>
<svg
   xmlns:dc="http://purl.org/dc/elements/1.1/"
   xmlns:cc="http://creativecommons.org/ns#"
   xmlns:rdf="http://www.w3.org/1999/02/22-rdf-syntax-ns#"
   xmlns:svg="http://www.w3.org/2000/svg"
   xmlns="http://www.w3.org/2000/svg"
   xmlns:sodipodi="http://sodipodi.sourceforge.net/DTD/sodipodi-0.dtd"
   xmlns:inkscape="http://www.inkscape.org/namespaces/inkscape"
   inkscape:version="1.0 (4035a4fb49, 2020-05-01)"
   id="svg8"
   version="1.1"
   viewBox="0 0 210 297"
   height="297mm"
   width="210mm">
  <defs
     id="defs2" />
  <sodipodi:namedview
     inkscape:window-maximized="0"
     inkscape:window-y="0"
     inkscape:window-x="224"
     inkscape:window-height="1030"
     inkscape:window-width="1424"
     showgrid="false"
     inkscape:document-rotation="0"
     inkscape:current-layer="layer1"
     inkscape:document-units="mm"
     inkscape:cy="763.47641"
     inkscape:cx="475.43666"
     inkscape:zoom="0.49497475"
     inkscape:pageshadow="2"
     inkscape:pageopacity="0.0"
     borderopacity="1.0"
     bordercolor="#666666"
     pagecolor="#ffffff"
     id="base" />
  <metadata
     id="metadata5">
    <rdf:RDF>
      <cc:Work
         rdf:about="">
        <dc:format>image/svg+xml</dc:format>
        <dc:type
           rdf:resource="http://purl.org/dc/dcmitype/StillImage" />
        <dc:title></dc:title>
      </cc:Work>
    </rdf:RDF>
  </metadata>
  <g
     id="layer1"
     inkscape:groupmode="layer"
     inkscape:label="Layer 1">
    <path
       id="path847"
       d="m 79.650031,261.45867 c -10.86024,-1.26542 -21.46634,-5.94674 -31.57147,-13.93499 l -1.45521,-1.15036 -25.00312,-0.0515 -25.0031196,-0.0515 v -43.65625 -43.65624 l 12.43541,-0.1323 c 10.8143296,-0.11504 12.4363296,-0.18402 12.4424096,-0.52916 0.004,-0.21828 0.10017,-0.54571 0.21405,-0.72761 0.16456,-0.26285 -2.37556,-0.33073 -12.3762596,-0.33073 h -12.58332 v -1.85208 -1.85208 l 12.36927,-0.0197 c 6.8030996,-0.0108 12.6177896,-0.0666 12.9215496,-0.12406 0.50704,-0.0959 0.58744,0.10621 0.98168,2.46705 0.23618,1.4143 0.79133,3.50178 1.23366,4.63883 0.44234,1.13706 0.80425,2.11932 0.80425,2.18282 0,0.0635 -4.7807,0.11543 -10.62379,0.11543 H 3.8122314 l 0.17081,12.89844 c 0.0939,7.09414 0.17169,14.11883 0.17275,15.61042 l 0.002,2.71198 h 5.82084 5.8208296 v -7.53142 -7.53142 l 0.8054,-0.91731 0.80541,-0.9173 -1.00384,-0.47722 c -0.73407,-0.34897 -1.64379,-0.47823 -3.3851,-0.48096 l -2.38125,-0.004 -0.20034,-1.81424 c -0.11019,-0.99783 -0.11019,-2.90283 0,-4.23333 0.17747,-2.1429 0.26112,-2.42781 0.73262,-2.49539 0.94131,-0.13491 1.4521,1.17604 1.4521,3.72682 0,2.63808 -0.081,2.56718 2.93206,2.56718 1.8974,0 2.09502,0.0484 2.09502,0.51355 0,0.72761 0.44104,0.91007 1.31988,0.54604 1.23386,-0.5111 1.23113,-1.05961 -0.005,-1.05961 h -1.05003 v -3.43454 -3.43454 l 0.66086,-0.16587 c 1.34742,-0.33818 1.45547,-0.10697 1.45985,3.12405 0.002,1.64167 0.0928,3.12435 0.20123,3.29483 0.12391,0.1948 1.22838,0.34226 2.97251,0.39688 l 2.77534,0.0869 0.13229,-2.6716 c 0.13665,-2.75966 0.43095,-3.54611 1.32701,-3.54611 0.25765,0 0.53462,0.17243 0.61549,0.38317 0.32333,0.84259 0.48883,6.90456 0.20805,7.62048 -0.2825,0.72028 -0.31007,0.72766 -2.73932,0.73349 -1.94604,0.005 -2.58137,0.10391 -3.06962,0.47952 l -0.61568,0.47364 0.5683,0.9632 c 0.55098,0.93383 0.56571,1.18948 0.48339,8.38422 l -0.0849,7.42102 9.525,2e-4 9.525,1.9e-4 0.71425,3.50533 c 0.39283,1.92793 1.37863,6.4819 2.19066,10.11992 3.57155,16.00111 4.72334,21.2136 4.8379,21.89427 0.40534,2.40838 0.5366,-0.95423 0.57548,-14.74364 l 0.0436,-15.47123 -1.04232,-1.39595 c -1.34065,-1.79551 -1.97573,-3.07863 -2.65682,-5.3679 -0.58066,-1.95172 -1.0909,-5.49454 -1.0909,-7.57458 0,-0.68292 -0.0949,-1.28135 -0.21083,-1.32986 -0.65428,-0.2737 -15.91251,-22.44494 -17.17679,-24.95903 -1.38067,-2.74556 -1.63906,-7.54778 -0.61928,-11.50937 1.93848,-7.53051 8.17226,-15.92539 16.02252,-21.57713 5.58349,-4.0198 14.93333,-7.59728 23.06943,-8.82696 4.17559,-0.63109 11.54138,-0.21004 16.02405,0.91597 1.68224,0.42256 1.77518,0.41757 4.35922,-0.23405 4.00445,-1.00981 7.50348,-1.32819 12.63897,-1.15002 6.200149,0.21511 9.147409,0.71588 15.324609,2.60382 14.69371,4.49082 27.15721,16.58755 29.80701,28.92983 0.48986,2.28167 0.42652,6.27047 -0.13235,8.33423 -0.61444,2.269 -2.29105,5.56906 -5.37697,10.58347 -5.24134,8.51682 -8.87887,13.56039 -12.41951,17.22009 l -1.94127,2.00655 0.001,21.38528 c 7.9e-4,11.7619 0.0352,21.41911 0.0765,21.46047 0.0413,0.0414 0.94617,-3.81747 2.0107,-8.57516 1.06454,-4.75769 2.09777,-9.36473 2.29608,-10.23785 0.19831,-0.87313 0.96726,-4.445 1.70878,-7.9375 0.74152,-3.4925 1.43581,-6.70719 1.54287,-7.14375 l 0.19466,-0.79375 7.07237,-0.0705 7.07237,-0.0705 -0.4082,-0.78937 c -0.2245,-0.43416 -0.7446,-1.71213 -1.15575,-2.83994 -0.41116,-1.12782 -0.84303,-2.27318 -0.95973,-2.54525 -0.19125,-0.4459 -0.10384,-0.48433 0.88662,-0.38988 0.60433,0.0576 1.09879,0.0742 1.09879,0.0368 0,-0.0374 -0.41672,-0.71944 -0.92605,-1.51564 -1.17794,-1.84142 -1.19623,-2.47657 -0.0661,-2.29814 0.3055,0.0482 0.25613,-0.11763 -0.59127,-1.98651 -0.88435,-1.9504 -1.02356,-1.80135 1.17935,-1.26258 0.7795,0.19065 0.78284,0.18667 0.3747,-0.44642 -0.22649,-0.35133 -0.72988,-1.33915 -1.11864,-2.19516 l -0.70683,-1.55637 1.05973,0.14213 c 0.58285,0.0782 1.05973,0.0905 1.05973,0.0275 0,-0.0631 -0.35719,-0.82224 -0.79375,-1.68707 -0.43656,-0.86482 -0.79375,-1.65022 -0.79375,-1.74531 0,-0.0951 0.3664,-0.0996 0.81422,-0.0101 0.78972,0.15795 0.80899,0.13905 0.64049,-0.62813 -0.14179,-0.64555 -0.0984,-0.76208 0.23575,-0.63384 0.22521,0.0864 0.39914,0.23514 0.38651,0.33048 -0.099,0.74684 0.52055,1.26062 2.11292,1.75235 0.55807,0.17234 0.59009,0.13865 0.33002,-0.34729 -0.20041,-0.37447 -0.20341,-0.59044 -0.01,-0.71006 0.35339,-0.2184 -0.18474,-0.91855 -0.70596,-0.91855 -0.20046,0 -0.36448,-0.12953 -0.36448,-0.28784 0,-0.34296 2.06915,-0.0621 2.57969,0.35015 0.63087,0.50943 0.34984,-0.28772 -0.32135,-0.9115 -0.48789,-0.45344 -0.69782,-0.9968 -0.83379,-2.15811 -0.17684,-1.51044 -0.16704,-1.54424 0.36516,-1.25942 0.73634,0.39408 3.23737,2.88623 3.23737,3.22588 0,0.14898 0.92274,-0.42896 2.05052,-1.2843 1.12779,-0.85534 2.37362,-1.76452 2.76852,-2.0204 l 0.718,-0.46523 -0.14841,1.41319 c -0.15236,1.45089 -0.44086,1.86677 -2.30442,3.32196 -0.8031,0.62712 -0.80137,0.4607 -0.0304,2.91803 0.0725,0.23095 0.37044,0.14751 1.00076,-0.28024 0.49366,-0.33501 1.59905,-0.76414 2.45641,-0.95364 1.71591,-0.37924 2.30414,-0.71775 2.04267,-1.17549 -0.0945,-0.16541 -0.0744,-0.21249 0.0447,-0.10461 0.2724,0.24677 0.92666,-0.27666 0.92666,-0.74135 0,-0.40193 1.3746,-2.74122 1.61812,-2.75372 0.0896,-0.005 0.065,0.49765 -0.0546,1.11612 -0.11964,0.61846 -0.22272,1.39776 -0.22906,1.73178 -0.0106,0.55761 0.0682,0.59235 0.96216,0.42464 l 0.97367,-0.18267 -0.74785,1.29515 c -0.41133,0.71234 -1.04434,1.80962 -1.4067,2.43841 l -0.65883,1.14325 1.02833,-0.17417 c 0.56558,-0.0958 1.23668,-0.23132 1.49135,-0.30118 0.63481,-0.17415 0.58582,0.0644 -0.30241,1.47298 -0.42098,0.66758 -0.85144,1.49969 -0.95657,1.84912 -0.16443,0.54653 -0.12217,0.60761 0.3024,0.43695 0.27146,-0.10911 0.9698,-0.2626 1.55189,-0.34108 l 1.05833,-0.1427 -0.55251,0.63179 c -0.81612,0.93321 -1.69645,2.48347 -1.69645,2.98743 0,0.35411 0.10093,0.38709 0.51178,0.16721 0.70319,-0.37634 1.34031,-0.3435 1.34031,0.0691 0,0.18864 -0.41367,0.99231 -0.91927,1.78593 -0.5056,0.79362 -0.92232,1.54527 -0.92604,1.67034 -0.004,0.12506 0.42028,0.17752 0.94225,0.11659 0.92729,-0.10826 0.94544,-0.0929 0.79262,0.67123 -0.086,0.43011 -0.51198,1.35991 -0.94658,2.06622 -0.84998,1.38139 -0.83294,1.41318 0.72629,1.35528 0.57183,-0.0213 0.36168,0.84091 -0.48591,1.99346 l -0.81664,1.11046 h 2.27185 c 1.9858,0 2.27233,-0.0583 2.27571,-0.46302 0.002,-0.25467 0.0787,-7.27935 0.17012,-15.61042 l 0.16626,-15.1474 h -11.90679 -11.90728 l 0.90189,-2.40111 c 0.7999,-2.12955 1.04995,-3.13469 1.54184,-6.19784 l 0.12747,-0.79375 14.07954,0.0752 c 7.74374,0.0413 14.14358,0.17812 14.22186,0.30396 0.0783,0.12584 0.102,0.95522 0.0527,1.84307 l -0.0896,1.61426 h -13.86712 c -7.62692,0 -13.86712,0.099 -13.86712,0.21988 0,0.12093 0.29359,0.377 0.65242,0.56904 0.35884,0.19205 0.59062,0.44919 0.51506,0.57144 -0.0756,0.12226 5.9114,0.25314 13.30434,0.29086 l 13.44172,0.0686 v 43.65624 43.65625 l -25.48792,0.0675 -25.48791,0.0675 -2.55792,1.95398 c -9.51314,7.267 -19.00165,11.44139 -29.487279,12.97267 -3.09172,0.4515 -11.5193,0.52306 -14.92104,0.12669 z m 8.63449,-10.49192 c 6.6687,-6.76401 13.077379,-16.66908 15.963299,-24.6724 1.47924,-4.10228 2.28181,-7.88675 3.49284,-16.47031 0.15626,-1.10754 -0.11139,-1.29862 -0.55303,-0.39481 -2.21099,4.52473 -8.958849,14.71836 -11.689609,17.65887 -0.33785,0.3638 -1.0476,1.22438 -1.57721,1.9124 -0.52961,0.68802 -1.01126,1.20262 -1.07032,1.14356 -0.0591,-0.0591 0.26188,-1.03871 0.71321,-2.17699 1.93587,-4.88238 3.98312,-13.0775 4.38364,-17.54772 l 0.17779,-1.98437 -1.09404,1.84189 c -1.60488,2.7019 -6.59836,9.72187 -8.75877,12.31331 -1.83453,2.20055 -4.94603,5.55625 -5.15191,5.55625 -0.0571,0 -0.004,-0.26789 0.11882,-0.59531 0.12241,-0.32742 0.30863,-1.83029 0.41383,-3.3397 l 0.19125,-2.74438 -1.13494,1.09055 c -1.15005,1.10508 -1.33481,1.11207 -1.91927,0.0726 -1.60269,-2.85042 -3.87676,-6.33026 -4.798,-7.34205 -0.14552,-0.15983 -0.85989,-0.98468 -1.5875,-1.83302 -0.7276,-0.84833 -1.6801,-1.87787 -2.11666,-2.28787 -0.78765,-0.73971 -0.78891,-0.74546 -0.16353,-0.74667 0.34663,-8e-4 1.03999,-0.25447 1.54081,-0.564 0.79093,-0.48882 1.00364,-0.51903 1.61873,-0.22989 0.46774,0.21987 0.58548,0.37696 0.34682,0.46273 -0.19873,0.0714 -0.46015,-0.03 -0.58092,-0.22547 -0.12078,-0.19542 -0.30668,-0.26824 -0.41311,-0.16181 -0.29943,0.29943 0.76821,0.97775 1.29113,0.82031 0.29531,-0.0889 0.76559,0.16068 1.289,0.68409 0.45323,0.45323 0.86933,0.77878 0.92467,0.72345 0.0553,-0.0553 -0.40565,-0.57071 -1.02441,-1.14526 -1.21354,-1.12683 -3.04029,-2.48321 -2.78242,-2.06597 0.0913,0.14774 -0.27923,0.25556 -0.87827,0.25556 -0.56992,0 -1.03621,-0.0279 -1.03621,-0.0619 0,-0.0341 0.25249,-0.19705 0.56109,-0.36221 0.39436,-0.21105 0.50766,-0.21382 0.38126,-0.009 -0.0989,0.16004 -0.0608,0.29098 0.0847,0.29098 0.73146,0 0.42622,-0.55991 -0.6974,-1.27925 -2.76718,-1.77156 -7.89112,-3.69369 -12.43439,-4.66447 l -0.8599,-0.18374 v 2.94187 c 0,15.20054 6.38045,30.2968 17.11392,40.49184 3.54694,3.36902 8.40709,7.40093 8.92729,7.40597 0.13439,0.001 1.38884,-1.1585 2.78767,-2.57733 z m -72.4849,-14.4198 2.3e-4,-2.97656 -3.77054,0.16838 c -4.7598696,0.21255 -5.6734096,-0.16608 -3.8608496,-1.60021 0.56866,-0.44993 1.28086,-0.68398 2.4153696,-0.79375 l 1.60892,-0.15567 -0.90866,-0.45977 c -0.49976,-0.25287 -1.5848296,-0.64582 -2.4112696,-0.87322 -1.49094,-0.41024 -2.86301,-1.24528 -2.86301,-1.74242 0,-0.41465 1.73547,-1.02416 2.96807,-1.0424 1.0241296,-0.0152 1.0694296,-0.042 0.47152,-0.27915 -0.92534,-0.36704 -2.33494,-1.77326 -2.92515,-2.91812 -0.29183,-0.56607 -0.57145,-1.85142 -0.67632,-3.10885 l -0.17878,-2.14378 h 1.44612 c 4.2499996,0 7.3612096,3.14397 7.3612096,7.43872 v 1.29253 l -1.52135,0.002 -1.52136,0.002 1.05833,0.63524 c 1.4746,0.8851 2.96796,3.02454 3.09908,4.43984 0.031,0.33465 0.12031,-2.78483 0.19844,-6.93217 0.13978,-7.4194 0.15224,-7.55489 0.77488,-8.42788 0.6811,-0.95497 0.68413,-0.94807 -0.7651,-1.74464 -1.20298,-0.66122 -2.1544,-1.9201 -2.73888,-3.62396 -0.47728,-1.39135 -0.56182,-2.14335 -0.48973,-4.35622 l 0.0871,-2.67457 2.00753,-0.1697 c 2.54944,-0.21551 14.18173,-0.22269 14.73834,-0.009 0.34945,0.1341 0.41851,0.68449 0.41851,3.33561 0,2.98226 -0.0482,3.27604 -0.79426,4.83923 -0.6507,1.36342 -1.04522,1.82167 -2.18281,2.53539 -0.7637,0.47915 -1.43313,0.90311 -1.48762,0.94213 -0.0545,0.039 0.20866,0.43666 0.58478,0.88365 0.89769,1.06684 0.93669,1.39122 1.09497,9.1075 0.0744,3.62482 0.1956,6.65099 0.26944,6.72483 0.0738,0.0738 0.14128,-0.094 0.14987,-0.37286 0.0328,-1.06673 1.21623,-2.894 2.60743,-4.02616 l 1.43242,-1.1657 -1.56472,0.0934 -1.56471,0.0937 0.0861,-1.5875 c 0.2257,-4.16239 2.89205,-6.87607 7.087,-7.2128 l 1.69046,-0.13569 v 0.81355 c 0,1.29746 -0.78657,4.3407 -1.36378,5.27647 -0.29115,0.47201 -1.05591,1.23633 -1.69946,1.6985 -0.64355,0.46216 -1.16926,0.84988 -1.16825,0.86159 0.001,0.0117 0.56251,0.0473 1.24777,0.079 1.43341,0.0664 2.71914,0.52774 2.71914,0.97567 0,0.45053 -1.20447,1.0684 -3.30729,1.69658 -1.01865,0.3043 -2.09021,0.73349 -2.38125,0.95376 -0.50133,0.37941 -0.47348,0.40123 0.52916,0.41471 1.16023,0.0156 2.97546,0.73592 3.52344,1.39818 0.29714,0.35912 0.25457,0.48261 -0.28922,0.83891 -0.54386,0.35635 -1.16916,0.38788 -4.25104,0.21431 l -3.61339,-0.20349 v 2.97839 2.97839 h 8.20209 c 6.57021,0 8.20208,-0.0687 8.20208,-0.34533 0,-0.18993 -0.36508,-2.00564 -0.81129,-4.0349 -0.92078,-4.18746 -2.65108,-12.4362 -3.27147,-15.59581 -0.37517,-1.91072 -0.82487,-4.02369 -1.85823,-8.73125 -0.19166,-0.87313 -0.74849,-3.5818 -1.23738,-6.01927 l -0.88891,-4.43177 H 19.746521 3.9797114 l 0.0726,8.26822 c 0.0399,4.54753 0.08,13.35815 0.089,19.57917 l 0.0164,11.31094 h 5.82083 5.8208296 z m -7.6142696,1.24177 c -0.90138,-0.63135 -0.76124,-1.5623 0.31185,-2.07151 1.6808196,-0.79761 4.0745996,-0.45573 4.6758996,0.66781 0.27653,0.5167 0.2268,0.66797 -0.39554,1.20329 -0.57911,0.49812 -1.0188,0.61229 -2.35801,0.61229 -1.0616796,0 -1.8549496,-0.14624 -2.2341996,-0.41188 z m 22.2173296,0.2232 c -0.33565,-0.0641 -0.74401,-0.41017 -0.90748,-0.76894 -0.47177,-1.03542 0.43661,-1.75638 2.39108,-1.89775 1.95897,-0.14171 3.2277,0.41664 3.2277,1.42046 0,1.12188 -2.24897,1.71678 -4.7113,1.24623 z m -7.72412,-6.82278 v -8.33437 l -0.85989,-0.0348 -0.8599,-0.0348 0.92604,-0.19493 c 0.82484,-0.17362 0.75979,-0.19872 -0.59531,-0.22975 -0.91629,-0.021 -1.52135,0.0766 -1.52135,0.24537 0,0.15411 -0.0893,0.22493 -0.19844,0.15737 -0.10914,-0.0676 -0.16544,3.67589 -0.12511,8.31876 l 0.0733,8.44159 h 1.58032 1.58032 z m 126.809679,7.94022 c -1.05056,-0.19052 -2.31898,-0.59909 -2.8187,-0.90794 -1.14308,-0.70646 -2.70238,-2.41921 -3.25225,-3.5723 -0.4164,-0.87319 -0.4428,-0.88363 -2.54307,-1.00521 -1.66509,-0.0964 -2.19933,-0.22819 -2.47982,-0.61178 -0.48218,-0.65941 -0.44994,-1.08909 0.1248,-1.66384 0.39809,-0.39809 1.29314,-0.54381 5.12561,-0.83449 l 4.6433,-0.35218 1.76497,0.82593 1.76498,0.82593 -0.0776,-1.85302 -0.0776,-1.85303 -2.11666,-0.0777 c -2.54168,-0.0934 -4.02476,-0.68417 -5.61464,-2.2367 -1.28384,-1.25369 -2.56729,-3.64851 -2.81373,-5.2502 -0.0932,-0.60574 -0.24723,-1.30405 -0.34231,-1.55181 -0.15901,-0.41439 0.13222,-0.44168 3.63745,-0.34082 3.35329,0.0965 3.95248,0.18384 4.9956,0.72831 1.53383,0.80061 3.13054,2.08884 3.31693,2.67612 0.12032,0.3791 0.3966,0.21247 1.53463,-0.92556 2.0413,-2.0413 3.53422,-2.5276 7.75971,-2.5276 3.05907,0 3.31134,0.0371 3.14678,0.46303 -0.0984,0.25466 -0.28599,1.02517 -0.4169,1.71224 -0.52995,2.7815 -2.62703,5.58453 -4.94526,6.61 -0.70141,0.31027 -2.06089,0.58899 -3.28062,0.67259 l -2.08285,0.14276 v 1.80535 1.80535 l 0.90076,-0.53146 c 1.66876,-0.98459 2.44114,-1.06617 6.84453,-0.7229 3.77963,0.29464 4.22704,0.38241 4.74158,0.93011 0.49787,0.52995 0.52608,0.68338 0.2281,1.24016 -0.37805,0.7064 -1.22457,0.95262 -3.28919,0.95671 -1.32274,0.003 -1.36651,0.0278 -1.78516,1.02509 l -0.42917,1.02239 0.69375,-0.36199 c 0.83788,-0.4372 2.55832,-0.47173 3.69857,-0.0742 1.04427,0.36404 1.3683,1.35105 0.6897,2.10089 -0.38935,0.43023 -0.81935,0.51851 -2.52569,0.51851 -1.87619,0 -2.10189,-0.0577 -2.57466,-0.65878 -0.4588,-0.58327 -0.55714,-0.61185 -0.858,-0.24934 -0.68359,0.82368 -2.76297,1.81189 -4.46112,2.12014 -1.54046,0.27961 -0.83985,0.31951 6.0635,0.34528 l 7.8052,0.0291 v -19.51249 -19.51249 l -15.52258,-0.0683 -15.52258,-0.0683 -0.43666,1.91984 c -0.24016,1.05591 -0.79796,3.58694 -1.23956,5.6245 -0.44159,2.03757 -0.97235,4.47857 -1.17947,5.42446 -0.20711,0.94588 -0.53841,2.55323 -0.73621,3.57187 -0.1978,1.01865 -0.72703,3.51896 -1.17606,5.55625 -1.3575,6.15907 -3.4775,16.3523 -3.4775,16.72026 0,0.27857 1.98298,0.34075 10.2526,0.32149 9.2898,-0.0216 10.07323,-0.0564 8.3425,-0.37028 z m -10.85987,-1.50145 c -0.1798,-0.17979 -0.3269,-0.65608 -0.3269,-1.05842 0,-1.01232 0.811,-1.38231 2.99741,-1.36747 1.48978,0.0101 1.90727,0.11275 2.37949,0.58497 0.53452,0.53452 0.54574,0.62084 0.16827,1.29472 -0.3846,0.68659 -0.51452,0.72572 -2.64791,0.79755 -1.51831,0.0511 -2.34913,-0.0301 -2.57036,-0.25135 z m -0.15671,-8.71391 c -0.29384,-0.41952 -0.32495,-0.73905 -0.12717,-1.30639 0.23124,-0.66333 0.42886,-0.77191 1.6921,-0.92975 2.19097,-0.27374 3.82113,0.35278 3.82113,1.46857 0,0.93942 -0.86458,1.32292 -2.98239,1.32292 -1.74641,0 -2.06648,-0.0739 -2.40367,-0.55535 z m 23.52892,0.13958 c -1.07874,-1.07874 0.0655,-2.36167 2.19296,-2.45875 2.123,-0.0969 3.57043,0.91685 2.95392,2.06881 -0.35908,0.67094 -0.84743,0.80571 -2.91956,0.80571 -1.29408,0 -1.93031,-0.11876 -2.22732,-0.41577 z m -13.38036,-10.61522 c -1.6533,-0.27745 -2.44551,-0.74423 -3.89755,-2.29647 -1.32682,-1.41837 -1.6322,-1.9433 -2.13279,-3.66613 -0.32133,-1.1059 -0.58424,-2.31867 -0.58424,-2.69503 0,-0.67365 0.0301,-0.68429 1.93578,-0.68429 2.21585,0 4.74335,0.41213 5.76385,0.93985 l 0.69884,0.36138 0.12507,-1.90739 c 0.12842,-1.95824 0.84978,-3.81366 2.0284,-5.2172 l 0.55333,-0.65894 0.53332,0.66146 c 1.09303,1.35565 1.91438,3.41816 2.05403,5.15796 0.076,0.94666 0.16685,1.72121 0.20192,1.72121 0.0351,0 0.52478,-0.19354 1.08825,-0.43009 0.62269,-0.26141 2.12429,-0.4829 3.82861,-0.56473 2.78169,-0.13357 2.80544,-0.1296 2.9704,0.49623 0.0916,0.34756 -0.087,1.57182 -0.39775,2.72606 -0.55687,2.06856 -0.95167,2.68554 -3.12258,4.87991 -0.97586,0.98641 -3.01513,1.35586 -7.28126,1.31912 -2.03729,-0.0175 -4.00182,-0.0819 -4.36563,-0.14291 z m 8.3295,-3.37991 c 1.53702,-0.33853 3.31217,-1.79287 3.31217,-2.7136 0,-0.53938 -2.07095,-0.40733 -3.3542,0.21388 -1.19077,0.57644 -2.20205,1.72251 -2.20205,2.49556 0,0.46554 0.14798,0.46582 2.24408,0.004 z m -5.86549,-0.38246 c -0.15502,-0.59281 -0.90968,-1.44698 -1.78528,-2.0207 -0.70218,-0.46008 -3.27764,-0.93842 -3.4604,-0.64269 -0.23756,0.38437 1.10261,1.99096 2.12931,2.55261 0.57708,0.31569 1.54411,0.58358 2.14895,0.59531 0.95741,0.0186 1.08259,-0.0441 0.96742,-0.48453 z m 4.67974,20.9929 c 0,0.11839 0.1786,0.067 0.39688,-0.11412 0.25095,-0.20827 0.39687,-0.22577 0.39687,-0.0476 0,0.15498 0.25092,0.23347 0.5576,0.1744 0.80171,-0.15439 2.39387,-1.43384 2.19159,-1.76114 -0.0941,-0.15231 -0.007,-0.38085 0.19348,-0.50787 0.65035,-0.41193 -2.12641,-0.26428 -2.93975,0.15631 -0.96955,0.50138 -1.5928,1.38511 -1.582,2.2432 0.008,0.64509 0.0221,0.65057 0.39687,0.15514 0.21366,-0.28248 0.38846,-0.41673 0.38846,-0.29833 z m -5.44909,-0.15262 c -0.50133,-0.56463 -0.50084,-0.56599 0.0913,-0.25528 0.32742,0.17182 0.59531,0.44711 0.59531,0.61177 0,0.16465 0.0683,0.23106 0.15181,0.14757 0.30145,-0.30145 -0.688,-1.74966 -1.56626,-2.29246 -0.94646,-0.58494 -3.34874,-1.05611 -3.34706,-0.65646 0.003,0.79359 1.11411,1.90659 2.41333,2.41819 1.90187,0.74892 2.30867,0.75545 1.66159,0.0267 z m 7.6725,-11.31363 c 1.56043,-0.48814 2.33409,-0.98738 2.75238,-1.77611 0.36086,-0.68045 0.18402,-0.89468 -0.73853,-0.89468 -2.10646,0 -4.48951,1.39589 -4.83486,2.83206 -0.12684,0.52747 -0.0633,0.56772 0.66615,0.42183 0.44351,-0.0887 1.41319,-0.35109 2.15486,-0.5831 z m -146.219189,0.0412 c -0.0557,-0.25466 -0.25187,-0.4303 -0.43594,-0.39032 -0.18483,0.0401 -0.25423,-0.0575 -0.15501,-0.21802 0.32908,-0.53247 -1.8427096,-2.36822 -2.8017196,-2.36822 -0.45754,0 -0.0529,1.3375 0.63047,2.08425 1.0296696,1.12509 2.9486796,1.74501 2.7621996,0.89231 z m 19.78762,-0.008 c -0.32772,-0.32772 0.46268,-0.79286 1.16042,-0.6829 0.5841,0.0921 0.87935,-0.0407 1.31121,-0.58977 0.52872,-0.67215 0.75939,-1.69555 0.38218,-1.69555 -0.0964,0 -0.66318,0.28598 -1.25961,0.63551 -1.10275,0.64625 -2.76102,2.97612 -1.87671,2.63679 0.23315,-0.0895 0.36028,-0.22631 0.28251,-0.30408 z m 119.082669,-0.25687 c -0.52074,-1.007 -1.2766,-1.64004 -2.46376,-2.06344 -1.08575,-0.38723 -3.26119,-0.51081 -3.25473,-0.18489 0.002,0.10914 0.3914,0.65635 0.86496,1.21601 0.89445,1.05709 2.51577,1.70462 4.36342,1.74269 0.86168,0.0178 0.86451,0.0137 0.49011,-0.71037 z M 23.062211,219.65016 c 0.15573,-0.14558 0.12463,-0.23498 -0.0818,-0.23498 -0.18321,0 -0.25165,-0.13181 -0.15208,-0.29292 0.12314,-0.19925 -0.0199,-0.23601 -0.4474,-0.11496 -0.47581,0.13474 -0.53259,0.11217 -0.23377,-0.0929 0.21707,-0.149 0.66356,-0.20342 0.99219,-0.12094 0.85292,0.21407 0.73809,-0.0941 -0.26239,-0.70405 -1.01567,-0.61927 -2.06309,-0.67018 -3.07048,-0.14924 -0.64172,0.33185 -1.36129,1.37472 -1.36129,1.97292 0,0.27998 4.29805,0.0352 4.61698,-0.26289 z m 1.49531,-6.20405 c 1.71304,-0.88074 2.88354,-3.18867 2.88354,-5.68561 v -0.78073 h -6.08541 -6.08542 l 0.002,1.12448 c 0.003,2.44921 1.14337,4.68057 2.74467,5.37149 1.09099,0.47075 5.60771,0.45029 6.54114,-0.0296 z m 49.03443,-15.61337 c 0.98731,-0.9873 -0.0146,-1.96547 -2.01326,-1.96547 -1.51588,0 -1.27177,1.47125 0.33774,2.03559 1.18119,0.41415 1.1917,0.41371 1.67552,-0.0701 z m 9.54577,-1.69786 c -0.0927,-0.14998 0.0135,-0.19433 0.24897,-0.10398 0.22584,0.0867 0.41062,0.028 0.41062,-0.13026 0,-0.486 -4.64398,-5.72858 -6.19026,-6.98817 -1.83825,-1.49744 -4.94383,-2.8073 -7.1427,-3.01263 -1.71501,-0.16015 -4.39412,0.28701 -4.39412,0.7334 0,0.13101 -0.19387,0.2382 -0.43082,0.2382 -0.75808,0 -3.10179,1.51665 -4.37191,2.82913 -1.35467,1.39985 -3.92852,4.74025 -3.92852,5.09851 0,0.35819 2.79993,-0.38687 4.21725,-1.1222 0.7079,-0.36727 2.10244,-1.19624 3.09898,-1.84216 0.99654,-0.64592 2.21661,-1.31252 2.71127,-1.48134 2.22729,-0.76014 5.45947,-0.0586 8.43291,1.83041 5.96276,3.78804 7.87332,4.81672 7.33833,3.95109 z m 68.836189,-3.88129 c -0.0958,-0.0958 -0.0677,-0.30411 0.0624,-0.46302 0.43273,-0.52877 -0.5693,-2.09283 -1.76247,-2.75102 l -1.12441,-0.62026 0.009,0.87972 c 0.01,0.9949 0.86705,2.21436 1.3476,1.91735 0.17207,-0.10634 0.24743,-0.0857 0.16746,0.046 -0.08,0.13162 0.0207,0.39284 0.2237,0.58048 0.20301,0.18763 0.3691,0.25312 0.3691,0.14552 0,-0.10761 0.14288,-0.0528 0.3175,0.12186 0.17463,0.17462 0.37307,0.3175 0.44098,0.3175 0.0679,0 0.0451,-0.0784 -0.0506,-0.1741 z m 4.74893,-0.52743 c 1.48086,-0.80526 2.36415,-1.63611 2.34829,-2.20889 -0.006,-0.21828 0.17012,-0.4778 0.39145,-0.57672 0.24637,-0.1101 0.0588,-0.18705 -0.48362,-0.19843 -1.09956,-0.0231 -2.60336,0.66792 -3.09866,1.42384 -0.3849,0.58744 -0.81396,2.26173 -0.5796,2.26173 0.0726,0 0.71258,-0.31569 1.42214,-0.70153 z M 52.979761,190.13182 c 0.88586,-1.352 5.56121,-5.86118 7.67364,-7.40091 1.16808,-0.85141 2.72946,-1.82867 3.46973,-2.1717 l 1.34594,-0.62367 0.14581,-1.75758 c 0.20723,-2.49777 0.049,-3.02779 -1.08298,-3.62724 -1.45477,-0.77039 -4.41996,-3.40645 -5.34636,-4.75293 -1.20773,-1.75538 -1.84656,-3.85761 -1.84656,-6.07656 0,-1.59287 0.13178,-2.16441 0.81373,-3.52911 1.51521,-3.03221 3.82485,-4.32251 8.60822,-4.80907 6.92452,-0.70437 11.29301,0.88341 13.31017,4.83774 0.78346,1.53586 0.90399,2.02853 0.90399,3.69515 0,1.53822 -0.14873,2.25442 -0.74328,3.57924 -1.29354,2.88241 -5.43094,6.21909 -9.14823,7.37775 l -1.56925,0.48913 -0.002,2.05052 c -0.002,2.0493 -0.002,2.05052 0.70847,2.05052 1.11087,0 4.5149,1.03271 5.86862,1.78042 2.36836,1.30812 4.96241,3.2622 8.34865,6.28897 1.88025,1.68064 3.70674,3.12803 4.05887,3.2164 1.63815,0.41115 3.73935,-0.95442 4.86568,-3.16221 2.24029,-4.39132 2.66327,-10.17566 1.26507,-17.29993 -0.77084,-3.92771 -1.98396,-7.90695 -2.65818,-8.71934 -0.17042,-0.20534 -0.23085,-0.45234 -0.13431,-0.54889 0.22864,-0.22863 2.16087,1.6593 4.25466,4.15708 1.73126,2.06532 3.56787,5.14647 4.765569,7.99488 l 0.69901,1.66242 -0.16237,-2.33216 c -0.39667,-5.69738 -2.394219,-9.97975 -6.375029,-13.66685 -4.70396,-4.3569 -7.40903,-7.31843 -8.24003,-9.02121 -1.89802,-3.88923 -1.76183,-7.22821 0.40444,-9.91561 2.00966,-2.49312 4.60788,-3.44252 8.24688,-3.01345 3.1507,0.3715 6.185179,2.53575 7.786239,5.55333 l 0.76388,1.4397 -0.93186,-0.99219 c -0.98605,-1.0499 -1.70199,-1.34258 -1.29441,-0.52917 0.1276,0.25466 0.41403,0.9988 0.63652,1.65365 0.22249,0.65484 0.48739,1.42875 0.58869,1.71979 0.10129,0.29104 -0.0849,0.12945 -0.41364,-0.35909 l -0.59781,-0.88825 -0.72,1.58614 c -0.52268,1.15144 -1.08927,1.87803 -2.067309,2.65113 -1.95561,1.54582 -3.57957,2.01341 -6.32078,1.81996 -1.99596,-0.14086 -2.19174,-0.11442 -1.88545,0.25463 0.73096,0.88076 3.49029,2.81009 5.32266,3.72162 1.56817,0.78009 2.28787,0.97582 3.906679,1.06242 1.67248,0.0895 2.12235,0.0193 2.86227,-0.44649 1.24508,-0.78379 1.9214,-2.48866 2.12734,-5.36253 l 0.16976,-2.36908 1.05264,2.07519 c 0.94774,1.86836 1.06318,2.31251 1.15834,4.45643 l 0.10569,2.38125 0.37286,-1.05833 c 0.20507,-0.58208 0.51015,-2.22586 0.67797,-3.65284 0.55557,-4.72428 -0.36427,-9.09285 -2.75028,-13.06179 -1.13716,-1.89158 -4.68777,-5.23911 -6.499299,-6.12757 -1.65768,-0.813 -1.40592,-1.05448 1.130139,-1.08399 1.92948,-0.0225 4.23781,0.54497 5.82753,1.4325 0.64535,0.36029 1.17337,0.55879 1.17337,0.4411 0,-0.41171 -1.56371,-2.56224 -2.56334,-3.52529 -1.10407,-1.06368 -4.69298,-3.11976 -5.455919,-3.12569 -1.11588,-0.009 -0.0482,-0.48107 1.803059,-0.79773 2.65405,-0.45399 6.48196,-0.19062 9.81459,0.67527 1.43212,0.3721 2.63924,0.71192 2.68248,0.75517 0.0433,0.0432 0.26292,0.72141 0.48816,1.50704 2.20564,7.69303 2.51698,9.98422 2.18955,16.11278 -0.11273,2.11005 -0.50954,5.68193 -0.88179,7.9375 -1.69798,10.28858 -1.97435,13.7041 -1.45637,17.9986 0.47795,3.9627 2.00157,7.96143 3.90983,10.26131 l 0.72644,0.87554 0.008,-3.1245 c 0.005,-2.03727 0.17039,-3.81498 0.47527,-5.10884 0.54787,-2.32507 2.31592,-5.98687 4.07821,-8.44638 4.24207,-5.92038 5.25596,-9.16601 5.01061,-16.03984 -0.12106,-3.39144 -0.24508,-4.27302 -0.83747,-5.95312 -0.38246,-1.08468 -0.76083,-2.21027 -0.84084,-2.50131 -0.18578,-0.67583 1.99863,1.58186 4.02541,4.16045 0.83217,1.05873 1.61016,2.03468 1.72889,2.16877 0.11872,0.13409 -0.0314,-0.63981 -0.3336,-1.71979 -0.54362,-1.94276 -1.31155,-3.64655 -2.04775,-4.54329 -0.75494,-0.91956 0.0611,-0.42974 2.05577,1.23395 1.11901,0.93334 2.54114,2.24654 3.16028,2.91822 0.61913,0.67169 1.22563,1.15949 1.34777,1.084 0.12214,-0.0755 0.20575,0.0698 0.1858,0.32293 -0.022,0.27934 0.13746,0.4471 0.40582,0.42691 0.27352,-0.0206 0.38884,0.10554 0.30242,0.33073 -0.12321,0.32108 0.19297,0.48471 0.76894,0.39796 0.29456,-0.0444 0.77992,1.00302 0.59983,1.29442 -0.0881,0.14251 -0.0421,0.25911 0.10223,0.25911 0.1443,0 0.34079,0.2471 0.43665,0.54911 0.0958,0.30201 0.23287,0.4905 0.30449,0.41888 0.29996,-0.29996 -1.08394,-4.46732 -2.29837,-6.92111 -4.35763,-8.80502 -14.07176,-16.91435 -24.33836,-20.31772 -4.7328,-1.56891 -7.24404,-1.90728 -14.155209,-1.90728 -6.55011,0 -7.48221,0.11946 -11.77396,1.50898 -3.0418,0.98484 -4.63847,1.75685 -6.79428,3.28513 -0.8992,0.63746 -1.68997,1.15901 -1.75726,1.15901 -0.0673,0 -0.1965,-0.29547 -0.28714,-0.6566 -0.24851,-0.99016 -1.54646,-2.32562 -2.93361,-3.0184 -1.92282,-0.9603 -3.70949,-1.34863 -7.02782,-1.52749 -11.73089,-0.63228 -24.72543,6.75653 -32.64805,18.56395 -2.64667,3.94445 -4.36675,8.3663 -4.37417,11.24479 -0.002,0.94063 0.2087,1.50913 1.00548,2.70751 l 1.00854,1.51688 0.88596,-1.83138 c 0.48728,-1.00725 1.14518,-2.15646 1.46201,-2.5538 l 0.57604,-0.72243 0.17151,1.83067 c 0.19763,2.10948 1.08025,5.48801 1.64394,6.29281 0.21204,0.30272 0.38552,0.41187 0.38552,0.24256 0,-0.16931 -0.11906,-0.38142 -0.26458,-0.47136 -0.14552,-0.0899 -0.26087,-0.48392 -0.25633,-0.87551 0.008,-0.68201 0.0357,-0.66743 0.66011,0.34634 0.35851,0.58209 0.66432,0.93927 0.67957,0.79375 0.0152,-0.14552 0.11972,0.0331 0.23215,0.39688 0.11244,0.3638 0.14246,-1.48742 0.0667,-4.11383 -0.14904,-5.16893 -0.01,-6.26632 1.2158,-9.57506 0.69948,-1.88853 1.29566,-2.59027 1.03292,-1.2158 -0.0742,0.38815 -0.0123,1.53169 0.13751,2.5412 l 0.27243,1.83548 1.12455,-3.04018 c 2.8758,-7.77464 6.4577,-12.71735 11.73609,-16.19477 2.01624,-1.32831 3.47836,-1.9949 6.06583,-2.76549 2.54307,-0.75736 2.58235,-0.69016 0.31597,0.54056 -5.13634,2.78922 -8.635,6.48756 -10.49608,11.09515 -2.18693,5.41429 -1.83454,13.35743 0.79621,17.94722 0.30808,0.53749 0.38306,0.5637 0.5285,0.1847 0.0932,-0.24292 0.0643,-0.37664 -0.0643,-0.29715 -0.23729,0.14665 -0.55721,-0.43439 -0.54981,-0.99857 0.003,-0.19617 0.0879,-0.17673 0.23358,0.0532 0.17455,0.27555 0.4029,0.11714 0.95348,-0.66145 0.65126,-0.92097 0.68787,-0.8378 0.18992,0.43142 -0.20496,0.52242 2.66633,-2.59228 2.89985,-3.14568 0.0989,-0.23441 0.18821,-0.32689 0.19844,-0.20552 0.0216,0.25583 2.13881,-1.36779 2.12814,-1.63197 -0.004,-0.0969 -0.49111,-0.47386 -1.08267,-0.83766 -2.10849,-1.29671 -3.61692,-4.12518 -3.29511,-6.1787 0.16653,-1.06272 0.15856,-1.07844 -0.25277,-0.49824 -0.2336,0.3295 -0.6057,0.92482 -0.8269,1.32292 l -0.40218,0.72381 0.17077,-0.79375 c 0.52801,-2.45415 2.3427,-4.64703 4.8597,-5.87249 1.9517,-0.95023 4.81985,-1.0274 6.67056,-0.1795 2.66758,1.22217 4.40579,3.69085 4.66986,6.63235 l 0.13792,1.53631 -1.94759,1.10493 c -8.86237,5.02792 -14.40258,12.12028 -16.35136,20.93237 -1.28178,5.79597 -1.42724,16.56489 -0.27033,20.01322 0.3543,1.05603 1.54805,3.06094 1.82253,3.06094 0.12265,0 0.43186,-0.31877 0.68714,-0.70837 z m 38.75505,-7.24475 c 0,-0.15411 -0.11419,-0.20962 -0.25375,-0.12337 -0.43397,0.26821 -1.78302,-1.40141 -2.40961,-2.98218 -0.32899,-0.82998 -0.71472,-1.66075 -0.85719,-1.84617 -0.45682,-0.59454 0.0745,-0.71272 0.98936,-0.22004 1.36839,0.73692 2.7636,1.97644 3.22158,2.86208 0.48973,0.94703 0.29593,2.58988 -0.3055,2.58988 -0.21169,0 -0.38489,-0.12609 -0.38489,-0.2802 z m -9.24666,-5.12911 c -1.00944,-1.0745 -0.21758,-2.79277 1.28705,-2.79277 1.46954,0 2.24741,1.97023 1.19384,3.02381 -0.62151,0.62151 -1.78144,0.51349 -2.48089,-0.23104 z m -28.33159,-0.11256 c 0.33564,-0.23311 0.3265,-0.29466 -0.0661,-0.44533 -0.25058,-0.0962 -0.4556,-0.29961 -0.4556,-0.45212 0,-0.1525 0.23812,-0.0618 0.52916,0.20161 0.44782,0.40527 0.52917,0.41592 0.52917,0.0693 0,-0.22527 -0.17859,-0.47811 -0.39687,-0.56187 -0.21829,-0.0838 -0.39688,-0.30156 -0.39688,-0.48398 0,-0.18835 0.25566,-0.076 0.59164,0.25995 0.4604,0.4604 0.52957,0.69004 0.31183,1.03524 -0.1539,0.24398 -0.44991,0.48951 -0.65779,0.54563 -0.31201,0.0842 -0.31001,0.0548 0.0115,-0.16845 z m 35.46654,-2.27736 c -0.18388,-0.22157 -0.26406,-0.40285 -0.17817,-0.40285 0.0859,0 0.0573,-0.26728 -0.0636,-0.59394 -0.12386,-0.33484 -0.10885,-0.91196 0.0344,-1.32292 0.20904,-0.59967 0.41113,-0.72898 1.13927,-0.72898 1.5483,0 2.41234,2.21061 1.1136,2.84908 -1.13013,0.55559 -1.70367,0.61155 -2.04556,0.19961 z m -5.86263,-2.7753 c -0.34354,-0.2862 -0.4923,-0.52433 -0.33058,-0.52917 0.16172,-0.005 0.24406,-0.27669 0.18298,-0.60411 -0.25557,-1.37001 1.46826,-2.11764 2.57446,-1.11655 1.67312,1.51416 -0.68538,3.70062 -2.42686,2.24983 z m -29.86108,-19.1587 c 0,-0.0549 0.20836,-0.2633 0.46303,-0.46302 0.41964,-0.32911 0.429,-0.31975 0.0999,0.0999 -0.34565,0.44073 -0.56292,0.58088 -0.56292,0.36312 z m -1.039,-5.8125 c -0.0379,-0.43862 0.85818,-3.21069 0.95088,-2.94168 0.0519,0.15073 -0.13641,0.92463 -0.41856,1.71979 -0.28214,0.79516 -0.52168,1.34501 -0.53232,1.22189 z m 103.895769,38.07274 c 0.32742,-0.0998 0.5991,-0.32222 0.60373,-0.49432 0.005,-0.17209 0.18792,-0.55044 0.40732,-0.84078 0.34502,-0.45657 0.43661,-0.47444 0.678,-0.13229 0.2396,0.3396 0.25966,0.33436 0.14181,-0.0371 -0.0755,-0.23795 0.0391,-0.68444 0.25462,-0.99219 0.36954,-0.52758 0.3518,-0.55954 -0.3107,-0.55954 -1.81184,0 -3.29613,1.4423 -3.29613,3.20287 0,0.78602 0.0338,0.81823 0.46302,0.44131 0.25466,-0.22362 0.73091,-0.48822 1.05833,-0.588 z m -6.41614,0.11882 c -0.51922,-0.57373 -0.19991,-0.73927 0.38277,-0.19843 0.28505,0.26458 0.31897,0.26458 0.16959,0 -0.22722,-0.40248 -0.0232,-0.42016 0.65565,-0.0568 0.43991,0.23543 0.51178,0.18471 0.51178,-0.3612 0,-0.78921 -0.86144,-1.91395 -1.86231,-2.43152 -1.14536,-0.59229 -1.26404,-0.50737 -1.02411,0.73289 0.11965,0.61846 0.22272,1.19772 0.22906,1.28723 0.0171,0.24164 1.08356,1.55704 1.26236,1.55704 0.0848,0 -0.0614,-0.23813 -0.32479,-0.52917 z M 19.005731,183.46969 c 0.0172,-1.25774 0.009,-2.40153 -0.0188,-2.54176 -0.12544,-0.63744 0.29891,-1.99629 0.57092,-1.82817 0.17621,0.1089 0.21719,0.0593 0.10331,-0.12494 -0.33782,-0.54661 -0.92851,-0.32328 -1.36196,0.51493 -0.35093,0.67862 -0.39218,1.31514 -0.23869,3.68332 0.14716,2.27051 0.26091,2.834 0.54974,2.72317 0.26676,-0.10236 0.37257,-0.75154 0.39552,-2.42655 z m 132.423819,-5.50811 c -0.43758,-0.91761 -2.54474,-2.25156 -2.54474,-1.61096 0,0.9415 0.60966,2.20771 1.50951,3.13508 l 1.00403,1.03475 0.22059,-0.84956 c 0.15679,-0.60385 0.10202,-1.09822 -0.18939,-1.70931 z m 5.12817,1.45905 c 0,-0.12216 0.13045,-0.22211 0.28989,-0.22211 0.58236,0 1.71363,-1.03038 2.3244,-2.11711 l 0.62632,-1.11437 -0.62812,0.1751 c -2.75713,0.7686 -3.9354,1.79037 -3.9354,3.41267 0,0.64072 0.0479,0.66889 0.66145,0.38932 0.36381,-0.16576 0.66146,-0.40133 0.66146,-0.5235 z M 72.692441,168.20912 c 0.27985,-0.3372 0.24047,-0.496 -0.23219,-0.93635 l -0.56919,-0.53028 v 0.93635 c 0,1.00585 0.26252,1.17956 0.80138,0.53028 z m -10.11738,-5.19113 c 3.14609,-1.24785 7.10967,-1.41512 10.06279,-0.42467 l 1.8896,0.63374 -0.13741,-0.77996 c -0.0917,-0.52072 0.0139,-0.94712 0.31776,-1.28292 0.39511,-0.43659 0.40514,-0.55283 0.076,-0.88084 -1.31306,-1.30849 -9.14476,-1.63226 -11.66781,-0.48235 -1.51631,0.69108 -2.11431,1.55827 -2.28265,3.31023 l -0.12925,1.34512 0.57697,-0.57698 c 0.31734,-0.31733 0.89965,-0.70495 1.29401,-0.86137 z m -22.434,-2.07572 c 0,-0.14552 -0.0525,-0.26458 -0.11667,-0.26458 -0.0642,0 -0.19027,0.11906 -0.2802,0.26458 -0.0899,0.14552 -0.0374,0.26458 0.11667,0.26458 0.15411,0 0.2802,-0.11906 0.2802,-0.26458 z m 22.05703,-15.8942 c 0.56174,-0.44187 0.69714,-0.77132 0.69714,-1.69627 0,-0.957 -0.13538,-1.26182 -0.81405,-1.83288 -0.45855,-0.38584 -1.14296,-0.68498 -1.5672,-0.68498 -0.42424,0 -1.10866,0.29914 -1.5672,0.68498 -1.05479,0.88754 -1.10298,2.10604 -0.12908,3.26347 0.84586,1.00524 2.29535,1.11917 3.38039,0.26568 z m 33.91437,-0.10106 c 0.72016,-0.72016 0.88268,-2.33215 0.31029,-3.07767 -0.94776,-1.23441 -2.5617,-1.35027 -3.64996,-0.262 -0.98597,0.98596 -1.01622,2.07242 -0.0884,3.17505 0.90133,1.07117 2.4473,1.14541 3.42809,0.16462 z M 7.7485014,192.80566 c -0.58696,-0.58696 -0.51598,-1.33611 0.17227,-1.81818 0.87075,-0.6099 3.6917296,-0.5623 4.2657396,0.072 0.56914,0.62888 0.55442,1.18075 -0.046,1.72409 -0.66342,0.6004 -3.7979696,0.61618 -4.3920296,0.0221 z m 18.8326696,0.13 c -0.49874,-0.29049 -0.60477,-1.19716 -0.2125,-1.8172 0.37783,-0.59722 3.54004,-0.72047 4.37914,-0.17067 0.8035,0.52647 0.88465,1.60671 0.15023,1.99975 -0.65462,0.35034 -3.70941,0.34194 -4.31687,-0.0119 z M 8.3106114,189.07702 c -0.46165,-0.0789 -0.85672,-0.37881 -1.04584,-0.79387 -0.26666,-0.58525 -0.22434,-0.7282 0.34504,-1.16579 0.73351,-0.56372 3.6092396,-0.71484 4.5028096,-0.23662 0.55819,0.29874 0.71807,1.68406 0.22923,1.98618 -0.37191,0.22984 -3.0877096,0.37139 -4.0312396,0.2101 z m 19.5273296,0.0456 c -0.14552,-0.0485 -0.59201,-0.16047 -0.99219,-0.24874 -0.59276,-0.13073 -0.7276,-0.30491 -0.7276,-0.93987 0,-1.02103 0.61034,-1.32719 2.64583,-1.32719 2.02175,0 2.64583,0.30813 2.64583,1.30635 0,0.61295 -0.15994,0.81431 -0.83323,1.04902 -0.78736,0.27447 -2.15635,0.35467 -2.73864,0.16043 z M 7.7957514,184.99816 c -0.58513,-0.34081 -0.59944,-1.38829 -0.0255,-1.86464 0.27475,-0.22802 1.09636,-0.36313 2.20829,-0.36313 2.0091596,0 2.6458396,0.35001 2.6458396,1.45454 0,0.60401 -0.14109,0.7565 -0.82683,0.89364 -1.25174,0.25035 -3.4803996,0.18329 -4.0018196,-0.12041 z m 18.7854196,0.0142 c -0.53969,-0.33086 -0.61385,-1.39051 -0.12568,-1.79566 0.18554,-0.15398 0.96415,-0.36312 1.73024,-0.46474 1.07565,-0.14269 1.63536,-0.0754 2.45749,0.29529 0.94048,0.4241 1.04471,0.55926 0.89408,1.15941 -0.0938,0.37364 -0.22982,0.73866 -0.30233,0.81117 -0.27183,0.27183 -4.20903,0.26721 -4.6538,-0.005 z m 106.811259,-0.8098 c -0.0978,-0.15821 -0.0708,-0.39463 0.06,-0.52539 0.14061,-0.14061 0.23775,-0.0231 0.23775,0.28764 0,0.60119 -0.049,0.64028 -0.29774,0.23775 z m 4.8429,-1.4751 c 0.1819,-0.0734 0.47956,-0.0734 0.66146,0 0.1819,0.0734 0.0331,0.13345 -0.33073,0.13345 -0.3638,0 -0.51263,-0.06 -0.33073,-0.13345 z M 8.0603314,181.00767 c -1.10568,-0.40383 -1.00342,-1.45633 0.18994,-1.95494 2.1646196,-0.90444 4.6448096,-0.17498 4.2846196,1.26016 -0.0986,0.39279 -0.41912,0.74143 -0.76749,0.83478 -0.88825,0.23801 -2.8777896,0.16287 -3.7070696,-0.14 z m 18.8515696,0.0722 c -0.46572,-0.12851 -0.68641,-0.3965 -0.74575,-0.90559 -0.0712,-0.61078 0.061,-0.78376 0.85139,-1.11401 2.56258,-1.07071 5.75563,0.47619 3.80423,1.843 -0.60757,0.42556 -2.67008,0.51872 -3.90987,0.1766 z m 114.681509,-8.25623 c -0.0815,-0.13186 0.15652,-0.23974 0.52891,-0.23974 0.81069,0 0.87618,0.15079 0.14817,0.34117 -0.2909,0.0761 -0.59558,0.0304 -0.67708,-0.10143 z m 5.83619,-1.03349 c -0.0899,-0.14552 -0.0374,-0.26459 0.11667,-0.26459 0.15411,0 0.2802,0.11907 0.2802,0.26459 0,0.14552 -0.0525,0.26458 -0.11667,0.26458 -0.0642,0 -0.19026,-0.11906 -0.2802,-0.26458 z m -1.52499,-1.03202 c -0.0715,-0.2733 -0.0414,-0.6401 0.0667,-0.81511 0.1254,-0.20289 0.24461,-0.0674 0.32897,0.37391 0.15223,0.79635 -0.20008,1.18919 -0.39568,0.4412 z m 0.77534,0.0619 c -0.097,-0.097 -0.17639,-0.33259 -0.17639,-0.5235 0,-0.27305 0.13935,-0.28361 0.65316,-0.0495 0.35924,0.16368 0.59034,0.39925 0.51355,0.52349 -0.16621,0.26893 -0.74211,0.29772 -0.99032,0.0495 z M 9.6838614,151.21634 l -12.86241,-0.0686 -0.14315,-1.78329 c -0.0787,-0.98081 -0.0879,-1.87266 -0.0204,-1.98188 0.0675,-0.10923 5.57769,-0.19859 12.24487,-0.19859 11.8040496,0 14.4980896,-0.11174 13.3665296,-0.5544 -0.45901,-0.17956 -0.46398,-0.20424 -0.0445,-0.22075 0.38922,-0.0153 0.4225,-0.11172 0.18913,-0.54777 -0.24365,-0.45527 -0.19877,-0.53341 0.32142,-0.55959 0.35053,-0.0176 0.15985,-0.12243 -0.45371,-0.24934 -0.58208,-0.1204 -6.55958,-0.22577 -13.2833196,-0.23415 l -12.22499,-0.0153 -0.16465,-0.87767 c -0.0906,-0.48272 -0.12572,-1.28639 -0.0781,-1.78594 l 0.0865,-0.90827 H 10.267921 c 10.76663,0 13.73799,-0.0722 14.06333,-0.34177 0.27694,-0.22946 0.44376,-0.24796 0.50765,-0.0563 0.0523,0.15701 0.29437,-0.0518 0.53785,-0.46394 0.92179,-1.56047 1.35507,-1.51271 -14.39627,-1.58676 l -14.3633996,-0.0675 v -2.51427 -2.51427 l 14.6433496,-0.064 14.64335,-0.064 0.63502,-0.79375 c 0.34926,-0.43657 0.63561,-0.88208 0.63633,-0.99004 8e-4,-0.10796 -6.87454,-0.22702 -15.27837,-0.26459 l -15.2796796,-0.0683 -0.0617,-9.09994 c -0.0339,-5.00496 0.005,-9.36723 0.0874,-9.69391 0.18711,-0.74548 8.04152,-8.67749 11.7482,-11.86427 1.52797,-1.31365 4.5640596,-3.70907 6.7468796,-5.32315 6.05832,-4.479827 9.74174,-6.751764 17.19791,-10.607687 17.55513,-9.078558 37.98032,-13.814917 57.15,-13.252402 11.889329,0.348882 22.226449,2.106205 34.329339,5.836031 7.85506,2.420744 17.96633,6.899555 24.64635,10.91716 1.29517,0.778962 2.39413,1.416296 2.44212,1.416296 0.17394,0 6.88473,4.599918 8.43219,5.779842 5.46699,4.16856 10.90306,8.99336 15.41524,13.68187 l 2.97983,3.09628 -0.0694,9.55694 -0.0694,9.55694 -16.22415,0.13229 -16.22415,0.13229 0.74602,0.98255 0.74603,0.98254 15.56108,0.01 15.56108,0.01 -0.0576,2.17779 c -0.0317,1.19779 -0.10482,2.35865 -0.16257,2.57969 -0.0925,0.35407 -1.71482,0.39317 -13.63341,0.32865 -11.90646,-0.0644 -16.85031,0.0959 -17.31607,0.56167 -0.27523,0.27523 0.46652,1.20624 0.84524,1.06091 0.23998,-0.0921 0.39284,0.004 0.39284,0.24675 0,0.34092 0.83802,0.40124 5.88698,0.42375 3.23784,0.0144 9.90534,0.10452 14.81667,0.2002 l 8.92969,0.17397 v 1.67956 1.67955 h -12.79348 c -14.41381,0 -16.02684,0.0838 -15.97067,0.82945 0.0204,0.27141 0.2202,0.49529 0.44389,0.49752 0.35343,0.004 0.35572,0.0363 0.0175,0.2502 -0.21406,0.13538 -0.29352,0.34192 -0.17657,0.45897 0.11696,0.11705 6.63218,0.24653 14.47828,0.28773 l 14.26562,0.0749 v 1.14879 c 0,0.63184 -0.0744,1.52086 -0.16537,1.97562 l -0.16536,0.82682 H 163.29468 149.1958 l -0.14451,-0.99219 c -0.0795,-0.5457 -0.22246,-1.6338 -0.31773,-2.41799 -0.26445,-2.17697 -1.81137,-6.46718 -3.29534,-9.1393 -1.6299,-2.93489 -4.54768,-6.8883 -6.93841,-9.40112 -0.98226,-1.03243 -1.78594,-1.93325 -1.78594,-2.00182 0,-0.0686 0.71438,-0.12466 1.5875,-0.12466 0.87313,0 1.5875,-0.1071 1.5875,-0.238 0,-0.22514 -1.09897,-1.94425 -2.25277,-3.524 -0.49712,-0.68064 -0.64264,-0.71974 -2.70816,-0.72761 -1.728,-0.007 -2.18282,0.0711 -2.18282,0.37295 0,0.77081 -0.49255,0.63069 -2.32752,-0.66211 -1.90816,-1.34437 -6.2649,-3.68316 -6.86675,-3.68622 -0.25062,-0.001 -0.33073,-1.01902 -0.33073,-4.20194 0,-5.01947 -0.11694,-5.79535 -0.89007,-5.90561 -0.52627,-0.0751 -0.57032,-0.2559 -0.64049,-2.62978 l -0.0754,-2.54919 0.86911,0.0728 c 0.47801,0.04 2.0895,0.0858 3.58109,0.10179 l 2.71197,0.029 v 2.50145 2.50146 l -1.78593,0.0782 c -1.22879,0.0538 -1.77769,0.18141 -1.75948,0.40896 0.0146,0.18191 0.0443,2.41806 0.0661,4.96924 0.0337,3.94323 0.10185,4.66237 0.45435,4.79764 0.64169,0.24624 0.87143,-0.16006 1.57313,-2.78212 0.3583,-1.33881 0.83458,-2.78835 1.05841,-3.2212 l 0.40697,-0.78699 h 3.3005 3.3005 v -1.04051 c 0,-0.80813 -0.11818,-1.07801 -0.52917,-1.20845 -0.39378,-0.12498 -0.52917,-0.40032 -0.52917,-1.07617 v -0.90821 h 3.41482 c 3.4092,0 3.41456,0.001 3.2653,0.59532 -0.0822,0.32742 -0.42828,0.93187 -0.76898,1.34321 -0.34071,0.41135 -0.61947,1.09596 -0.61947,1.52136 v 0.77345 h 5.39741 5.39741 l 1.39136,1.52135 1.39136,1.52135 -2.68773,0.0754 c -1.47825,0.0415 -2.68773,0.18125 -2.68773,0.31063 0,0.12938 -1.07156,1.85416 -2.38125,3.83286 -1.30968,1.97869 -2.38125,3.66777 -2.38125,3.7535 0,0.0857 0.4423,1.0508 0.98288,2.14459 0.73344,1.48403 1.16545,2.05235 1.70233,2.23951 0.3957,0.13794 0.91542,0.54988 1.15493,0.91542 0.23952,0.36554 0.49745,0.60265 0.57319,0.52691 0.0757,-0.0757 -0.24109,-0.60908 -0.70407,-1.18519 -0.70677,-0.87949 -0.84384,-1.27689 -0.85463,-2.47785 -0.0146,-1.6266 0.49024,-2.80147 1.57186,-3.65793 0.64798,-0.51309 0.97044,-0.56684 2.78341,-0.46399 1.12779,0.064 2.05052,0.0281 2.05052,-0.0797 0,-0.37613 1.19604,0.0958 1.90231,0.75057 l 0.71168,0.65982 1.1333,-0.97007 c 1.32726,-1.13608 1.91555,-1.32302 3.64159,-1.15717 2.34314,0.22515 3.96945,2.12283 3.98239,4.64693 0.006,1.24057 -0.59837,2.96807 -1.03902,2.96807 -0.15295,0 -0.27808,0.10519 -0.27808,0.23377 0,0.20855 6.86565,0.0891 7.10938,-0.12364 0.0539,-0.047 0.0274,-0.36661 -0.0589,-0.7102 -0.68305,-2.72151 -12.21543,-14.16529 -18.66759,-18.52418 -5.41341,-3.65714 -14.20528,-8.44474 -20.3975,-11.10741 -2.92245,-1.25667 -8.55321,-3.370426 -8.97834,-3.370426 -0.13731,0 -0.30872,0.506016 -0.38092,1.124476 -0.0722,0.61847 -0.26897,2.30473 -0.43726,3.74726 -0.35182,3.01567 -1.57458,7.71968 -3.34163,12.85535 -0.67594,1.96453 -1.25896,3.60984 -1.29559,3.65624 -0.0366,0.0464 -1.61288,-0.34191 -3.5028,-0.86292 -4.00184,-1.10323 -9.55215,-2.07907 -14.607199,-2.56819 -4.3904,-0.42482 -19.20936,-0.42044 -23.68021,0.007 -5.92603,0.56656 -12.43491,1.83519 -16.34861,3.18647 l -1.53193,0.52893 -0.21688,-0.5847 c -2.37148,-6.39351 -3.8949,-12.2106 -4.46648,-17.055 -0.3391,-2.87404 -0.53427,-3.77031 -0.821,-3.77031 -0.20688,0 -1.75687,0.55241 -3.44443,1.22758 -9.41249,3.76584 -17.12787,7.94115 -24.93039,13.49153 -5.22316,3.71553 -10.84711,9.104 -14.3177396,13.71824 -3.92602,5.21968 -3.9612,5.12174 1.87679,5.22429 4.0669796,0.0714 4.1417496,0.0833 4.2247996,0.66804 0.0465,0.32743 0.19533,0.59532 0.33073,0.59532 0.13544,0 0.24618,-1.19019 0.24618,-2.64584 0,-2.46944 -0.0353,-2.64583 -0.52916,-2.64583 -0.42158,0 -0.52917,-0.17639 -0.52917,-0.86755 v -0.86754 l 5.68845,0.008 5.68845,0.008 9e-5,0.7092 c 7e-5,0.53407 -0.14692,0.73009 -0.59522,0.79375 -0.56734,0.0806 -0.59886,0.21196 -0.67071,2.79653 -0.0495,1.78133 0.0208,2.71198 0.20505,2.71198 0.15425,0 0.34569,-0.32742 0.42542,-0.7276 l 0.14498,-0.72761 2.98144,0.0815 2.98144,0.0814 0.17426,-4.02612 c 0.30273,-6.99418 0.28803,-7.19274 -0.59045,-7.97547 -0.4206,-0.37475 -0.98205,-1.04928 -1.24767,-1.49895 l -0.48296,-0.81757 h -3.7511 c -3.16705,0 -3.77596,-0.0648 -3.91076,-0.41604 -0.0878,-0.22883 -0.0387,-0.64211 0.10921,-0.9184 0.23986,-0.44819 0.64504,-0.51031 3.75788,-0.57615 l 3.48902,-0.0738 0.216,-1.04133 c 0.74607,-3.59685 5.58627,-5.25941 8.4055,-2.88718 1.63923,1.37932 2.3341,4.07463 1.57109,6.09409 -0.61443,1.62624 -2.88628,3.23962 -4.58002,3.25256 l -0.7604,0.006 0.16723,4.56407 c 0.092,2.51023 0.16705,4.83849 0.16684,5.1739 -2e-4,0.33541 0.10118,0.54708 0.22529,0.47037 0.12411,-0.0767 0.30624,-1.02871 0.40473,-2.11555 0.47447,-5.23599 1.86948,-6.62408 6.9829,-6.94829 4.04125,-0.25625 3.76027,0.0759 3.76027,-4.44525 0,-2.7306 -0.0885,-3.84301 -0.30576,-3.84301 -0.53812,0 -2.06187,-1.32286 -2.50028,-2.17065 -1.05783,-2.04561 -0.28313,-4.86349 1.6388,-5.96093 1.41634,-0.80874 3.42483,-0.81064 4.60951,-0.004 1.53117,1.04211 1.98169,1.89331 1.98169,3.74417 0,1.41697 -0.10989,1.7989 -0.76447,2.6571 -0.42045,0.55124 -1.16795,1.24033 -1.66111,1.5313 l -0.89665,0.52903 0.0736,3.47519 0.0736,3.4752 1.98438,-0.0591 1.98437,-0.0591 -3.70417,1.91319 c -2.03729,1.05225 -4.23994,2.25679 -4.89479,2.67675 -2.1746,1.3946 -5.39998,4.05513 -7.30036,6.02185 -6.76892,7.00524 -10.818,14.07413 -11.89483,20.76598 -0.22984,1.42835 -0.44003,2.5993 -0.46708,2.60209 -0.0271,0.003 -5.83727,-0.0258 -12.9115996,-0.0635 z m 7.5424396,-22.178 c 0.20628,-0.53756 0.20201,-3.50104 -0.006,-4.27784 -0.0877,-0.32742 -0.32425,-0.59531 -0.52556,-0.59531 -0.28723,0 -0.36601,0.56951 -0.36601,2.64583 0,2.08515 0.0781,2.64584 0.36856,2.64584 0.20272,0 0.44084,-0.18833 0.52917,-0.41852 z m 2.54185,-2.22732 c 0,-2.46944 -0.0353,-2.64583 -0.52917,-2.64583 -0.49137,0 -0.52917,0.17639 -0.52917,2.46944 0,2.50942 0.0782,2.82223 0.70556,2.82223 0.27046,0 0.35278,-0.61736 0.35278,-2.64584 z m 2.38125,0 c 0,-2.17546 -0.0706,-2.64583 -0.39688,-2.64583 -0.32632,0 -0.39687,0.47037 -0.39687,2.64583 0,2.17546 0.0706,2.64584 0.39687,2.64584 0.32632,0 0.39688,-0.47038 0.39688,-2.64584 z m 136.028659,1.78153 c -0.26131,-0.25936 -0.2917,-0.22897 -0.14812,0.14811 0.0994,0.26094 0.2473,0.40778 0.32877,0.32632 0.0815,-0.0815 1.7e-4,-0.29495 -0.18065,-0.47443 z m -4.08543,-4.47697 c -0.0845,-0.21107 -0.14716,-0.14837 -0.15985,0.15985 -0.0115,0.27892 0.051,0.43519 0.13896,0.34727 0.0879,-0.0879 0.0973,-0.31613 0.0209,-0.50712 z M 6.0893914,118.44012 c 5.2235796,-5.95624 13.5254696,-13.40415 18.7938296,-16.8606 8.85735,-5.8111 16.54935,-9.783438 25.17972,-13.00342 2.49597,-0.931246 6.8019,-2.280256 6.91449,-2.166247 0.0284,0.02872 -0.0751,1.533885 -0.22985,3.344815 -0.69193,8.095472 1.28317,15.735412 5.51225,21.322112 l 0.55522,0.73346 1.77027,-0.47919 c 0.97366,-0.26356 1.82809,-0.57273 1.89874,-0.68706 0.0707,-0.11432 -0.47254,-1.25603 -1.20711,-2.53712 -1.59339,-2.77889 -2.72458,-5.62197 -3.48447,-8.75764 -0.45525,-1.87862 -0.55258,-3.06075 -0.52731,-6.404872 0.017,-2.255573 0.18242,-4.80313 0.3675,-5.661239 0.33111,-1.535139 0.35564,-1.565905 1.52714,-1.915568 4.11804,-1.22913 13.98501,-2.599383 20.90208,-2.902725 6.46791,-0.283646 15.83104,0.623851 22.180039,2.14974 1.50323,0.36128 2.95324,0.656875 3.22224,0.656875 0.88449,0 1.24156,0.716952 1.54829,3.108746 0.94798,7.391943 -0.29334,13.782553 -3.81035,19.616473 -0.79441,1.31775 -1.44438,2.49867 -1.44438,2.62426 0,0.22769 2.82189,1.10885 3.55108,1.10885 0.58872,0 3.24719,-4.19448 4.2768,-6.74785 1.5159,-3.75939 1.99032,-6.13157 2.14282,-10.714646 0.075,-2.255573 0.0197,-4.934479 -0.1231,-5.953124 -0.14275,-1.018646 -0.24017,-1.875732 -0.21648,-1.904638 0.085,-0.10373 4.06391,1.036058 7.69908,2.205471 9.80511,3.154246 22.57984,10.168257 32.41146,17.795637 2.25532,1.74967 10.82492,10.09723 14.11769,13.75188 l 1.75731,1.95044 v -3.01899 -3.01899 l -1.63006,-1.84186 c -6.2049,-7.01115 -16.57589,-15.18459 -26.15119,-20.609919 -8.69455,-4.926296 -16.55667,-8.199647 -26.1107,-10.871036 -9.76122,-2.729322 -17.40689,-3.992885 -26.276799,-4.34264 -26.67275,-1.051748 -53.28752,7.729251 -74.74342,24.660055 -4.21454,3.32568 -8.2021896,6.97124 -11.1558896,10.19884 l -2.73977,2.99384 0.0237,3.06033 c 0.019,2.46287 0.088,2.98894 0.35317,2.6947 0.18125,-0.20109 1.59696,-1.81081 3.14602,-3.57715 z m 97.7013386,-9.11971 c 0.34219,-0.55368 0.13316,-2.63244 -0.38175,-3.79649 -0.81543,-1.8434 -3.31508,-3.35251 -4.967019,-2.99872 -0.37285,0.0798 -0.23097,0.23974 0.59557,0.67119 1.793919,0.93641 3.412169,2.69834 3.764899,4.09914 0.1702,0.67594 0.30946,1.47392 0.30946,1.77328 0,0.58587 0.38423,0.72828 0.67884,0.2516 z m -21.851309,-1.62553 c -0.0123,-1.8147 -1.81112,-4.29371 -3.61269,-4.97866 -0.77788,-0.29576 -2.20522,-0.32724 -2.19522,-0.0484 0.004,0.10915 0.48548,0.49362 1.07014,0.8544 1.95127,1.20408 3.68524,3.3803 3.68524,4.62517 0,0.23102 0.2291,0.40741 0.52917,0.40741 0.42181,0 0.52799,-0.17445 0.52336,-0.85989 z m 6.42195,0.40859 c -0.32742,-0.0631 -0.8632,-0.0631 -1.19062,0 -0.32743,0.0631 -0.0595,0.11466 0.59531,0.11466 0.65484,0 0.92273,-0.0516 0.59531,-0.11466 z m -19.65553,-5.49653 c 0.41649,-0.21538 0.99326,-0.69163 1.28171,-1.05834 0.28845,-0.36671 0.65615,-0.66674 0.81711,-0.66674 0.16096,0 0.29265,-0.11033 0.29265,-0.24519 0,-0.13485 0.20836,-0.29963 0.46302,-0.36618 0.25466,-0.0666 -0.63831,-0.13481 -1.98437,-0.15169 l -2.4474,-0.0307 v 1.30087 c 0,1.1397 0.13491,1.42905 0.74074,1.58865 0.0436,0.0115 0.42005,-0.15532 0.83654,-0.37069 z m 1.28353,-2.17041 c 0.19099,-0.0764 0.4192,-0.067 0.50712,0.0209 0.0879,0.0879 -0.0684,0.15045 -0.34727,0.13896 -0.30823,-0.0127 -0.37092,-0.0754 -0.15985,-0.15985 z m 21.40291,1.6725 c 0.35229,-0.37177 0.48771,-0.71158 0.34175,-0.85754 -0.14597,-0.14596 -0.1314,-0.39815 0.0367,-0.63643 0.23692,-0.3357 0.25753,-0.32876 0.13799,0.0465 -0.16985,0.53311 0.43729,0.82617 0.85213,0.41133 0.91301,-0.91301 0.44184,-0.98474 -6.4685,-0.98474 h -6.76533 l 1.40751,1.31283 1.40752,1.31283 4.23333,0.005 c 4.09176,0.005 4.25285,-0.0151 4.81685,-0.61025 z m -9.84682,-0.56064 -1.05544,-0.92096 0.92604,-0.0364 c 0.50932,-0.02 1.0451,-0.005 1.19062,0.0328 0.14553,0.038 0.65699,0.14143 1.13659,0.22977 l 0.87201,0.16061 -0.9115,0.28291 c -0.78541,0.24377 -0.89343,0.22547 -0.7809,-0.13229 0.11426,-0.36325 0.0951,-0.36554 -0.15291,-0.0183 -0.15592,0.21828 -0.21866,0.60523 -0.13941,0.8599 0.19567,0.62882 0.12727,0.59995 -1.0851,-0.45795 z m 8.55224,0.47564 c 0.191,-0.0764 0.4192,-0.067 0.50712,0.0209 0.0879,0.0879 -0.0683,0.15045 -0.34727,0.13896 -0.30822,-0.0127 -0.37092,-0.0754 -0.15985,-0.15985 z m -1.80247,-0.34476 c 0.65484,-0.12647 1.50744,-0.30996 1.89465,-0.40773 0.38722,-0.0978 0.923,-0.0492 1.19063,0.10793 0.41216,0.242 0.34494,0.28379 -0.43945,0.2732 -0.50932,-0.007 -1.58089,0.048 -2.38125,0.12203 -1.4106,0.13041 -1.41871,0.12749 -0.26458,-0.0954 z m -1.95224,-0.53851 c 0.17665,-0.17665 0.63028,-0.18586 1.30969,-0.0266 l 1.03942,0.24369 -1.30969,0.0266 c -0.89147,0.0181 -1.22338,-0.0597 -1.03942,-0.24369 z m -1.22276,-0.52349 c 0,-0.14552 0.11203,-0.26458 0.24896,-0.26458 0.13694,0 0.32256,0.11906 0.41249,0.26458 0.0899,0.14552 -0.0221,0.26459 -0.24896,0.26459 -0.22687,0 -0.41249,-0.11907 -0.41249,-0.26459 z m 2.3151,-0.17522 c 0.1819,-0.0734 0.47956,-0.0734 0.66146,0 0.1819,0.0734 0.0331,0.13345 -0.33073,0.13345 -0.3638,0 -0.51263,-0.0601 -0.33073,-0.13345 z m 17.470839,0.97011 -0.0745,-1.32179 -1.85208,0.003 c -1.29313,0.002 -1.73231,0.0803 -1.45521,0.2594 0.21828,0.14107 0.61226,0.25831 0.87551,0.26054 0.26325,0.002 0.41014,0.11488 0.32642,0.25035 -0.0837,0.13546 -0.0312,0.32108 0.11667,0.41249 0.14838,0.0917 0.2689,-0.0743 0.2689,-0.37029 0,-0.36725 0.12471,-0.48862 0.39536,-0.38477 0.21744,0.0834 0.33541,0.2487 0.26215,0.36724 -0.0733,0.11854 0.0707,0.41943 0.31991,0.66864 0.42776,0.42777 0.41956,0.44247 -0.14655,0.26279 -0.55388,-0.17579 -0.57332,-0.14817 -0.25474,0.36197 0.1897,0.30376 0.55815,0.55229 0.81878,0.55229 0.40213,0 0.46259,-0.20008 0.39937,-1.32178 z M 77.182731,97.86079 c 0,-0.49742 0.0723,-1.09274 0.1606,-1.32292 0.14307,-0.37286 -0.4053,-0.41851 -5.02709,-0.41851 h -5.18768 v 1.32291 1.32292 h 5.02708 5.02709 z m 16.05018,-0.41853 0.0429,-1.3229 h -6.9628 -6.9628 l -0.0102,1.32291 -0.0102,1.32292 6.93016,-1e-5 6.93016,-2e-5 0.0429,-1.3229 z m 11.995649,10e-6 v -1.32291 h -5.02708 -5.027089 v 1.32291 1.32292 h 5.027089 5.02708 z M 77.447311,93.473524 v -1.322916 h -5.29167 c -5.8835,0 -5.51617,-0.130345 -5.1263,1.81901 l 0.16537,0.826822 h 5.1263 5.1263 z m 15.82335,0.06615 -0.0806,-1.256771 -1.05834,0.05436 c -6.9198,0.355433 -8.86354,0.386865 -8.86354,0.143327 0,-0.433753 1.54827,-0.605536 3.91433,-0.434303 1.20699,0.08735 2.60622,0.08158 3.10939,-0.01281 0.89871,-0.168598 0.90829,-0.184266 0.54259,-0.887142 -0.81593,-1.568215 -2.68803,-2.703047 -4.44431,-2.694078 -2.026,0.01035 -4.04994,1.293641 -4.68532,2.970752 -0.23776,0.627568 -0.42207,0.727605 -1.34055,0.727605 l -1.06488,-8e-6 v 1.322916 1.322918 h 7.02596 7.02595 z m 11.957899,0.760677 c 0,-0.272851 0.0744,-0.868164 0.16536,-1.322916 l 0.16537,-0.826823 h -5.19245 -5.192449 v 1.322916 1.322912 h 5.027089 c 4.73898,0 5.02708,-0.0284 5.02708,-0.496089 z M 13.528871,121.5414 c -0.0609,-0.0606 -0.11072,-0.48921 -0.11072,-0.95238 v -0.84216 l 5.88698,0.0264 5.88697,0.0263 -0.0862,0.79178 c -0.0474,0.43547 -0.12957,0.83513 -0.18257,0.88812 -0.13578,0.13579 -11.25954,0.19625 -11.39444,0.0619 z"
       style="fill:#000000;stroke-width:0.264583" />
  </g>
</svg>
